<?xml version="1.0" standalone="no"?>
<!DOCTYPE svg PUBLIC "-//W3C//DTD SVG 20010904//EN"
 "http://www.w3.org/TR/2001/REC-SVG-20010904/DTD/svg10.dtd">
<svg version="1.0" xmlns="http://www.w3.org/2000/svg"
 width="700.000000pt" height="700.000000pt" viewBox="0 0 700.000000 700.000000"
 preserveAspectRatio="xMidYMid meet">
<metadata>
Created by potrace 1.14, written by Peter Selinger 2001-2017
</metadata>
<g transform="translate(0.000000,700.000000) scale(0.100000,-0.100000)"
fill="#000000" stroke="none">
<path d="M4170 4911 c-250 -53 -449 -220 -572 -478 -81 -171 -78 -132 -78
-1058 0 -779 1 -826 19 -897 38 -148 128 -295 253 -414 148 -141 300 -205 541
-229 l57 -5 0 189 0 190 -47 6 c-210 27 -344 131 -412 320 -22 60 -22 60 -19
870 l3 810 29 58 c74 152 261 277 413 277 l33 0 0 190 0 190 -67 -1 c-38 0
-106 -9 -153 -18z"/>
<path d="M4600 4741 l0 -189 69 -17 c218 -53 381 -260 381 -481 0 -24 3 -44 7
-44 3 0 86 21 185 46 l178 47 0 39 c0 58 -29 185 -57 253 -78 184 -249 363
-441 459 -79 40 -212 76 -279 76 l-43 0 0 -189z"/>
<path d="M1600 4720 l0 -190 584 -2 584 -3 -584 -1144 -584 -1144 0 -188 0
-189 800 0 800 0 0 190 0 190 -585 0 c-420 0 -585 3 -585 11 0 10 302 604 986
1943 l184 359 0 178 0 179 -800 0 -800 0 0 -190z"/>
<path d="M5050 2692 c0 -76 -19 -161 -51 -229 -53 -111 -192 -212 -327 -237
l-67 -12 -3 -192 -2 -193 67 7 c212 21 378 105 530 268 116 124 177 239 208
393 9 44 15 98 13 119 l-3 38 -149 37 c-81 20 -164 40 -182 44 l-34 6 0 -49z"/>
</g>
</svg>
